# xmcd
#
# Track frame offsets:
#	150
#	14995
#	28404
#	41668
#	52090
#	66112
#	77821
#	93486
#	105670
#	117292
#	132651
#	144068
#	156840
#	171269
#	186708
#	200098
#	210520
#	225042
#	236819
#	249046
#	266348
#	281000
#	291602
#	304429
#
# Disc length: 4318 seconds
#
# Revision: 0
# Processed by: cddbd v1.5.2PL0 Copyright (c) Steve Scherf et al.
# Submitted via: audiograbber 1.83.01
#
DISCID=7210dc18
DTITLE=Diverse - Shades Of Country
DYEAR=2007
DGENRE=Country
TTITLE0=Roger Miller - Me And Bobby McGee
TTITLE1=Don Williams - Where Do I Go From Here
TTITLE2=Johnny Darrell - The Son Of A Hickery Holler's Tramp
TTITLE3=Carl Perkins - Daddy Sang Bass
TTITLE4=Charley Pride - Can't Stop The Mississippi
TTITLE5=Dolly Parton - Just The Way I Am
TTITLE6=Jo Anne Houston - Always On My Mind
TTITLE7=Anne Murray - Last Thing On My Mind
TTITLE8=George Jones - Talk Back Trembling Lips
TTITLE9=Lynn Anderson - Desperado
TTITLE10=Linda Ronstadt - Will You Love Me Tomorrow
TTITLE11=Wanda Jackson - Crazy
TTITLE12=Jo Anne Houston - Loving Him Was Easier
TTITLE13=Kenny Rogers - For The Good Times
TTITLE14=Dottie West - D.I.V.O.R.C.E
TTITLE15=Ferlin Husky - Six Days On The Road
TTITLE16=Dolly Parton - Lonely Coming Down
TTITLE17=Kenny Rogers - Poem For My Little Lady
TTITLE18=Jimmy C. Newmann - Jambalaya
TTITLE19=Ferlin Husky - For The Good Times
TTITLE20=Gene Pitney - Somewhere In The Country
TTITLE21=Al Caiola - Bonanza
TTITLE22=Highwaymen - Michael
TTITLE23=Billy Joe Royal - To Love Somebody
EXTD=
EXTT0=
EXTT1=
EXTT2=
EXTT3=
EXTT4=
EXTT5=
EXTT6=
EXTT7=
EXTT8=
EXTT9=
EXTT10=
EXTT11=
EXTT12=
EXTT13=
EXTT14=
EXTT15=
EXTT16=
EXTT17=
EXTT18=
EXTT19=
EXTT20=
EXTT21=
EXTT22=
EXTT23=
PLAYORDER=
